<?xml version="1.0" encoding="UTF-8"?>
<svg xmlns="http://www.w3.org/2000/svg" xmlns:xlink="http://www.w3.org/1999/xlink" xmlns:svgjs="http://svgjs.com/svgjs" version="1.1" width="512" height="512" x="0" y="0" viewBox="0 0 512 512" style="enable-background:new 0 0 512 512" xml:space="preserve" class="">
  <g>
    <g xmlns="http://www.w3.org/2000/svg">
      <g>
        <g>
          <path d="m497 512h-482c-8.284 0-15-6.716-15-15v-482c0-8.284 6.716-15 15-15h482c8.284 0 15 6.716 15 15v482c0 8.284-6.716 15-15 15zm-467-30h452v-452h-452z" fill="#ffffff" data-original="#000000" style="" class=""/>
        </g>
      </g>
      <g>
        <g>
          <path d="m286.125 451.996h-180.75c-8.284 0-15-6.716-15-15v-361.992c0-8.284 6.716-15 15-15h150.748c58.172 0 105.498 47.326 105.498 105.498 0 11.827-2.009 23.616-5.875 34.739 40.44 24.286 65.878 68.472 65.878 116.256.001 74.714-60.784 135.499-135.499 135.499zm-165.75-30h165.75c58.173 0 105.5-47.327 105.5-105.5 0-41.025-24.086-78.647-61.361-95.847-3.719-1.716-6.575-4.878-7.904-8.752s-1.017-8.123.865-11.761c5.571-10.768 8.396-22.421 8.396-34.635 0-41.63-33.868-75.498-75.498-75.498h-135.748zm165.75-30.004h-120.746c-8.284 0-15-6.716-15-15v-120.992c0-8.284 6.716-15 15-15h120.746c41.629 0 75.496 33.867 75.496 75.496s-33.867 75.496-75.496 75.496zm-105.746-30h105.746c25.086 0 45.496-20.41 45.496-45.496s-20.41-45.496-45.496-45.496h-105.746zm75.744-150.996h-90.744c-8.284 0-15-6.716-15-15v-60.989c0-8.284 6.716-15 15-15h90.744c25.085 0 45.494 20.409 45.494 45.495 0 25.085-20.409 45.494-45.494 45.494zm-75.744-30h75.744c8.543 0 15.494-6.951 15.494-15.494 0-8.544-6.951-15.495-15.494-15.495h-75.744z" fill="#ffffff" data-original="#000000" style="" class=""/>
        </g>
      </g>
    </g>
  </g>
</svg>
