<?xml version="1.0" encoding="UTF-8"?>
<svg xmlns="http://www.w3.org/2000/svg" xmlns:xlink="http://www.w3.org/1999/xlink" xmlns:svgjs="http://svgjs.com/svgjs" version="1.1" width="512" height="512" x="0" y="0" viewBox="0 0 512 512" style="enable-background:new 0 0 512 512" xml:space="preserve" class="">
  <g>
    <g xmlns="http://www.w3.org/2000/svg">
      <path d="m266.5 512h-123.91c-26.229 0-49.657-14.708-61.143-38.384-11.517-23.742-8.553-51.329 7.735-71.996.387-.491.796-.963 1.228-1.415l300.58-315.523c6.354-8.525 7.375-19.269 2.702-28.903-4.794-9.881-14.211-15.779-25.192-15.779h-274c-11.046 0-20-8.954-20-20s8.954-20 20-20h274c26.271 0 49.714 14.683 61.181 38.32s8.488 51.138-7.773 71.772c-.387.491-.796.963-1.228 1.415l-300.58 315.524c-6.38 8.562-7.387 19.389-2.663 29.127 4.812 9.92 14.214 15.842 25.153 15.842h123.91c11.046 0 20 8.954 20 20s-8.954 20-20 20z" fill="#ffffff" data-original="#000000" style="" class=""/>
      <path d="m417.5 512h-70c-11.046 0-20-8.954-20-20s8.954-20 20-20h70c11.046 0 20 8.954 20 20s-8.954 20-20 20z" fill="#ffffff" data-original="#000000" style="" class=""/>
    </g>
  </g>
</svg>
