<?xml version="1.0"?>
<svg xmlns="http://www.w3.org/2000/svg" xmlns:xlink="http://www.w3.org/1999/xlink" xmlns:svgjs="http://svgjs.com/svgjs" version="1.1" width="512" height="512" x="0" y="0" viewBox="0 0 512 512" style="enable-background:new 0 0 512 512" xml:space="preserve" class=""><g><g xmlns="http://www.w3.org/2000/svg"><path d="m383.419 338.003c-6.692 0-13.231-3.358-17.018-9.466-19.704-31.789-58.458-51.537-101.136-51.537-45.757 0-87.72-14.123-118.158-39.766-30.699-25.862-47.606-61.104-47.606-99.234 0-76.093 62.032-138 138.28-138 33.731 0 82.185 3.792 158.089 33.364 10.292 4.01 15.385 15.604 11.375 25.896s-15.606 15.384-25.896 11.375c-69.291-26.995-111.458-30.635-143.567-30.635-54.192 0-98.28 43.962-98.28 98 0 56.439 54.066 99 125.764 99 56.412 0 108.193 27 135.135 70.463 5.819 9.388 2.927 21.717-6.462 27.536-3.282 2.034-6.923 3.004-10.52 3.004zm-69.918 169.533c10.694-2.761 17.127-13.668 14.366-24.364s-13.665-17.126-24.364-14.367c-8.213 2.12-16.658 3.195-25.102 3.195-28.403 0-93.786-9.209-157.5-34.581-10.263-4.085-21.894.919-25.98 11.182-4.086 10.262.92 21.894 11.182 25.98 64.562 25.71 134.571 37.419 172.298 37.419 11.813 0 23.623-1.502 35.1-4.464z" fill="#ffffff" data-original="#000000" style="" class=""/><path d="m370.432 470c-4.681 0-9.38-1.633-13.177-4.961-8.306-7.281-9.136-19.917-1.854-28.223 12.749-14.543 20.799-31.997 23.278-50.476 1.469-10.948 11.543-18.631 22.482-17.162 10.947 1.469 18.631 11.535 17.162 22.482-3.53 26.308-14.888 51.041-32.845 71.524-3.952 4.51-9.485 6.816-15.046 6.816z" fill="#ffffff" data-original="#000000" style="" class=""/></g></g></svg>
