<?xml version="1.0"?>
<svg xmlns="http://www.w3.org/2000/svg" xmlns:xlink="http://www.w3.org/1999/xlink" xmlns:svgjs="http://svgjs.com/svgjs" version="1.1" width="512" height="512" x="0" y="0" viewBox="0 0 503.93147 503" style="enable-background:new 0 0 512 512" xml:space="preserve" class=""><g><path xmlns="http://www.w3.org/2000/svg" d="m264.828125 185.84375v-52.964844c-.007813-4.871094-3.957031-8.820312-8.828125-8.828125h-91.644531l-24.046875 48.085938c-2.179688 4.363281-7.480469 6.128906-11.84375 3.949219-4.359375-2.179688-6.128906-7.484376-3.949219-11.84375l20.097656-40.191407h-24.398437l-15.214844 30.433594c-1.410156 2.820313-4.21875 4.675781-7.367188 4.863281-3.148437.1875-6.160156-1.316406-7.898437-3.949218-1.738281-2.632813-1.9375-5.992188-.527344-8.8125l11.265625-22.535157h-21.023437c-4.875.007813-8.820313 3.957031-8.828125 8.828125v52.964844c.007812 4.875 3.953125 8.824219 8.828125 8.828125h176.550781c4.871094-.003906 8.820312-3.953125 8.828125-8.828125zm0 0" fill="#eab104" data-original="#000000" style=""/><path xmlns="http://www.w3.org/2000/svg" d="m114.757812 335.914062v52.964844h105.933594v-52.964844h-17.65625v17.65625c0 4.875-3.953125 8.828126-8.828125 8.828126s-8.828125-3.953126-8.828125-8.828126v-52.964843h-35.308594v52.964843c0 4.875-3.953124 8.828126-8.828124 8.828126s-8.828126-3.953126-8.828126-8.828126v-17.65625zm0 0" fill="#eab104" data-original="#000000" style=""/><path xmlns="http://www.w3.org/2000/svg" d="m238.34375 335.914062v52.964844h26.484375v-49.199218c-8.609375-2.476563-17.523437-3.746094-26.484375-3.765626zm0 0" fill="#eab104" data-original="#000000" style=""/><path xmlns="http://www.w3.org/2000/svg" d="m150.070312 238.8125c0 4.875-3.953124 8.824219-8.828124 8.824219h-105.039063c4.21875 20.535156 22.28125 35.28125 43.246094 35.3125h176.550781c20.964844-.03125 39.023438-14.777344 43.246094-35.3125h-113.867188c-4.875 0-8.828125-3.949219-8.828125-8.824219 0-4.878906 3.953125-8.828125 8.828125-8.828125h114.757813v-150.070313c-.027344-24.363281-19.773438-44.109374-44.136719-44.136718h-176.550781c-24.367188.027344-44.109375 19.773437-44.140625 44.136718v150.070313h105.933594c4.875 0 8.828124 3.949219 8.828124 8.828125zm-97.105468-52.96875v-52.964844c.015625-14.617187 11.863281-26.464844 26.484375-26.480468h176.550781c14.621094.015624 26.464844 11.863281 26.484375 26.480468v52.964844c-.019531 14.621094-11.863281 26.46875-26.484375 26.484375h-176.550781c-14.621094-.015625-26.46875-11.863281-26.484375-26.484375zm0 0" fill="#eab104" data-original="#000000" style=""/><path xmlns="http://www.w3.org/2000/svg" d="m167.722656.464844c-24.160156.015625-47.929687 6.085937-69.140625 17.65625h138.339844c-21.226563-11.582032-45.019531-17.652344-69.199219-17.65625zm0 0" fill="#eab104" data-original="#000000" style=""/><path xmlns="http://www.w3.org/2000/svg" d="m326.621094 168.191406c.019531-2.304687-.898438-4.519531-2.542969-6.128906-1.632813-1.730469-3.90625-2.707031-6.285156-2.699219v17.652344c4.871093-.003906 8.820312-3.953125 8.828125-8.824219zm0 0" fill="#eab104" data-original="#000000" style=""/><path xmlns="http://www.w3.org/2000/svg" d="m8.828125 494.8125h35.308594v-88.277344c.019531-6.277344 3.386719-12.070312 8.828125-15.199218v-44.703126c-32.464844 16.574219-52.917969 49.933594-52.964844 86.382813v52.96875c.0078125 4.871094 3.953125 8.820313 8.828125 8.828125zm0 0" fill="#eab104" data-original="#000000" style=""/><path xmlns="http://www.w3.org/2000/svg" d="m61.792969 494.8125h211.863281v-88.277344h-211.863281zm185.378906-70.621094c4.875 0 8.828125 3.949219 8.828125 8.824219 0 4.878906-3.953125 8.828125-8.828125 8.828125s-8.828125-3.949219-8.828125-8.828125c0-4.875 3.953125-8.824219 8.828125-8.824219zm-158.894531 0c4.875 0 8.824218 3.949219 8.824218 8.824219 0 4.878906-3.949218 8.828125-8.824218 8.828125s-8.828125-3.949219-8.828125-8.828125c0-4.875 3.953125-8.824219 8.828125-8.824219zm0 0" fill="#eab104" data-original="#000000" style=""/><path xmlns="http://www.w3.org/2000/svg" d="m70.621094 339.679688v49.199218h26.480468v-52.964844c-8.957031.019532-17.871093 1.289063-26.480468 3.765626zm0 0" fill="#eab104" data-original="#000000" style=""/><path xmlns="http://www.w3.org/2000/svg" d="m282.484375 391.335938c5.441406 3.128906 8.804687 8.921874 8.824219 15.199218v88.277344h35.3125c4.871094-.007812 8.820312-3.957031 8.828125-8.828125v-52.96875c-.046875-36.449219-20.5-69.808594-52.964844-86.382813zm0 0" fill="#eab104" data-original="#000000" style=""/><path xmlns="http://www.w3.org/2000/svg" d="m17.65625 177.015625v-17.636719c-2.300781-.019531-4.511719.890625-6.128906 2.527344-1.730469 1.632812-2.707032 3.90625-2.699219 6.285156.003906 4.871094 3.953125 8.820313 8.828125 8.824219zm0 0" fill="#eab104" data-original="#000000" style=""/><path xmlns="http://www.w3.org/2000/svg" d="m406.070312 503.636719h17.652344c4.875 0 8.828125-3.949219 8.828125-8.824219v-123.589844c0-4.875 3.953125-8.824218 8.828125-8.824218s8.828125-3.953126 8.828125-8.828126v-14.789062c5.605469 12.316406 14.09375 23.617188 26.484375 23.617188 4.875 0 8.824219-3.953126 8.824219-8.828126s-3.949219-8.828124-8.824219-8.828124c-5.234375 0-14.0625-18.351563-17.832031-37.046876-.855469-4.082031-4.484375-6.984374-8.652344-6.921874v-.167969c0-4.878907-3.953125-8.828125-8.828125-8.828125h-17.65625v-55.96875c.011719-7.019532 2.792969-13.75 7.734375-18.734375l27.277344-27.1875.023437-.035157.722657.71875c1.65625 1.65625 3.898437 2.585938 6.242187 2.585938 2.339844 0 4.585938-.929688 6.242188-2.585938l29.382812-29.378906c3.445313-3.449218 3.445313-9.039062 0-12.484375l-12.484375-12.484375c-3.449219-3.449218-9.039062-3.449218-12.484375 0l-29.386718 29.382813c-3.152344 3.191406-3.371094 8.253906-.511719 11.710937-.164063.160156-.398438.238282-.550781.40625l-26.945313 26.863282c-8.246094 8.300781-12.886719 19.519531-12.914063 31.222656v55.96875c-4.875 0-8.828124 3.949218-8.828124 8.828125v194.207031c0 4.875 3.953124 8.824219 8.828124 8.824219zm0 0" fill="#eab104" data-original="#000000" style=""/></g></svg>
