<?xml version="1.0"?>
<svg xmlns="http://www.w3.org/2000/svg" xmlns:xlink="http://www.w3.org/1999/xlink" xmlns:svgjs="http://svgjs.com/svgjs" version="1.1" width="512" height="512" x="0" y="0" viewBox="0 0 74 74" style="enable-background:new 0 0 512 512" xml:space="preserve" class=""><g><path xmlns="http://www.w3.org/2000/svg" d="m23.5 61.5h-2.93a1 1 0 1 1 0-2h2.93a1 1 0 0 1 0 2z" fill="#eab104" data-original="#000000" style="" class=""/><path xmlns="http://www.w3.org/2000/svg" d="m68 61.5h-27.56a1 1 0 0 1 0-2h27.56a2 2 0 0 0 2-2v-41a2 2 0 0 0 -2-2h-62a2 2 0 0 0 -2 2v41a2 2 0 0 0 2 2h7.56a1 1 0 1 1 0 2h-7.56a4 4 0 0 1 -4-4v-41a4 4 0 0 1 4-4h62a4 4 0 0 1 4 4v41a4 4 0 0 1 -4 4z" fill="#eab104" data-original="#000000" style="" class=""/><path xmlns="http://www.w3.org/2000/svg" d="m33.44 61.5h-2.94a1 1 0 0 1 0-2h2.94a1 1 0 0 1 0 2z" fill="#eab104" data-original="#000000" style="" class=""/><path xmlns="http://www.w3.org/2000/svg" d="m63 55.5h-52a3 3 0 0 1 -3-3v-31a3 3 0 0 1 3-3h52a3 3 0 0 1 3 3v31a3 3 0 0 1 -3 3zm-52-35a1 1 0 0 0 -1 1v31a1 1 0 0 0 1 1h52a1 1 0 0 0 1-1v-31a1 1 0 0 0 -1-1z" fill="#eab104" data-original="#000000" style="" class=""/><path xmlns="http://www.w3.org/2000/svg" d="m23.476 55.5a1 1 0 0 1 -.707-1.707l22.857-22.858a1 1 0 0 1 1.393-.021l18.667 17.569a1 1 0 0 1 -1.372 1.456l-17.96-16.9-22.171 22.168a1 1 0 0 1 -.707.293z" fill="#eab104" data-original="#000000" style="" class=""/><path xmlns="http://www.w3.org/2000/svg" d="m9 51.11a1 1 0 0 1 -.707-1.71l15.47-15.47a1 1 0 0 1 1.393-.021l9.71 9.15a1 1 0 1 1 -1.372 1.456l-9-8.484-14.787 14.786a1 1 0 0 1 -.707.293z" fill="#eab104" data-original="#000000" style="" class=""/><path xmlns="http://www.w3.org/2000/svg" d="m32.354 32.938a4.646 4.646 0 1 1 4.646-4.646 4.651 4.651 0 0 1 -4.646 4.646zm0-7.292a2.646 2.646 0 1 0 2.646 2.646 2.649 2.649 0 0 0 -2.646-2.646z" fill="#eab104" data-original="#000000" style="" class=""/></g></svg>
