<?xml version="1.0"?>
<svg xmlns="http://www.w3.org/2000/svg" xmlns:xlink="http://www.w3.org/1999/xlink" xmlns:svgjs="http://svgjs.com/svgjs" version="1.1" width="512" height="512" x="0" y="0" viewBox="0 0 501.367 501.367" style="enable-background:new 0 0 512 512" xml:space="preserve" class=""><g><g xmlns="http://www.w3.org/2000/svg"><path d="m490.677 264.973v-15c0-30.149-16.266-56.561-40.474-70.954 9.404-10.196 15.162-23.803 15.162-38.733 0-31.533-25.654-57.188-57.188-57.188s-57.188 25.654-57.188 57.188c0 14.935 5.76 28.544 15.169 38.74-5.947 3.525-11.448 7.791-16.359 12.703-11.489-19.479-28.549-35.294-48.978-45.233 16.72-14.227 27.356-35.4 27.356-59.023 0-42.733-34.767-77.5-77.5-77.5s-77.5 34.767-77.5 77.5c0 23.622 10.636 44.796 27.356 59.023-20.429 9.939-37.488 25.755-48.978 45.233-4.911-4.912-10.412-9.178-16.359-12.703 9.408-10.196 15.169-23.806 15.169-38.74 0-31.533-25.654-57.188-57.187-57.188s-57.188 25.654-57.188 57.187c0 14.931 5.758 28.537 15.162 38.733-24.208 14.394-40.474 40.805-40.474 70.954v15c138.996.001 249.006.001 479.999.001zm-109.687-124.688c0-14.991 12.196-27.188 27.188-27.188 14.991 0 27.188 12.196 27.188 27.188s-12.196 27.188-27.188 27.188-27.188-12.196-27.188-27.188zm-18.313 83.513c9.306-16.142 26.66-26.325 45.501-26.325 23.738 0 43.847 15.838 50.317 37.5h-93.791c-.477-3.648-1.212-7.675-2.027-11.175zm-159.5-136.325c0-26.191 21.309-47.5 47.5-47.5s47.5 21.309 47.5 47.5-21.309 47.5-47.5 47.5-47.5-21.309-47.5-47.5zm47.5 77.5c42.04 0 76.621 30.553 83.675 70h-167.35c7.058-39.469 41.658-70 83.675-70zm-184.687-24.688c0-14.991 12.196-27.188 27.188-27.188s27.187 12.196 27.187 27.188-12.196 27.188-27.187 27.188-27.188-12.196-27.188-27.188zm-23.13 94.688c6.47-21.662 26.579-37.5 50.317-37.5 18.84 0 36.195 10.184 45.5 26.325-.815 3.499-1.549 7.525-2.026 11.175z" fill="#eab104" data-original="#000000" style="" class=""/><path d="m501.367 390.66-59.209-8.602-26.478-53.652-26.48 53.653-55.959 8.131 20.638-20.117-71.31-10.362-31.891-64.619-31.891 64.619-71.31 10.362 20.635 20.115-55.945-8.129-26.478-53.652-26.479 53.652-59.21 8.602 42.844 41.762-10.114 58.971 52.958-27.843 52.958 27.843-10.115-58.971 41.456-40.408 29.089 28.355-12.181 71.022 63.782-33.532 63.782 33.532-12.181-71.022 29.096-28.361 41.461 40.414-10.114 58.971 52.958-27.843 52.957 27.843-10.114-58.971zm-402.566 45.892-13.113-6.894-13.114 6.895 2.504-14.603-10.608-10.34 14.661-2.131 6.557-13.285 6.557 13.285 14.661 2.131-10.61 10.34zm175.815.001-23.939-12.585-23.939 12.585 4.572-26.655-19.367-18.878 26.764-3.89 11.969-24.252 11.969 24.252 26.764 3.89-19.367 18.878zm154.177 0-13.114-6.895-13.114 6.895 2.504-14.603-10.608-10.341 14.661-2.131 6.557-13.285 6.557 13.285 14.661 2.131-10.608 10.341z" fill="#eab104" data-original="#000000" style="" class=""/></g></g></svg>
